<svg width="24" height="24" viewBox="0 0 24 24" fill="none" xmlns="http://www.w3.org/2000/svg">
<path d="M2.00021 12.9755L19.5862 12.9755L14.2932 18.2685C14.1977 18.3608 14.1215 18.4711 14.0691 18.5931C14.0167 18.7151 13.9891 18.8463 13.988 18.9791C13.9868 19.1119 14.0121 19.2436 14.0624 19.3665C14.1127 19.4894 14.1869 19.601 14.2808 19.6949C14.3747 19.7888 14.4864 19.863 14.6093 19.9133C14.7322 19.9636 14.8638 19.9889 14.9966 19.9878C15.1294 19.9866 15.2606 19.959 15.3826 19.9066C15.5046 19.8542 15.615 19.778 15.7072 19.6825L22.7072 12.6825C22.8947 12.495 23 12.2407 23 11.9755C23 11.7103 22.8947 11.456 22.7072 11.2685L15.7072 4.2685C15.5186 4.08635 15.266 3.98555 15.0038 3.98783C14.7416 3.99011 14.4908 4.09528 14.3054 4.28069C14.12 4.46609 14.0148 4.71691 14.0125 4.9791C14.0103 5.2413 14.1111 5.4939 14.2932 5.6825L19.5862 10.9755L2.00021 10.9755C1.735 10.9755 1.48064 11.0809 1.29311 11.2684C1.10557 11.4559 1.00021 11.7103 1.00021 11.9755C1.00021 12.2407 1.10557 12.4951 1.29311 12.6826C1.48064 12.8701 1.735 12.9755 2.00021 12.9755Z" fill="black"/>
</svg>
