<svg width="72" height="72" viewBox="0 0 72 72" fill="none" xmlns="http://www.w3.org/2000/svg">
<g clip-path="url(#clip0_43_53)">
<path d="M20.8118 23.344C17.7104 23.344 15.1868 25.8676 15.1868 28.969C15.1868 32.0705 17.7104 34.5941 20.8118 34.5941C23.9139 34.5941 26.4369 32.0705 26.4369 28.969C26.4369 25.8676 23.9139 23.344 20.8118 23.344ZM20.8118 31.7816C19.2611 31.7816 17.9993 30.5198 17.9993 28.969C17.9993 27.4183 19.2611 26.1565 20.8118 26.1565C22.3631 26.1565 23.6244 27.4183 23.6244 28.969C23.6244 30.5198 22.3631 31.7816 20.8118 31.7816Z" fill="#3F3F3F"/>
<path d="M41.9058 21.9377C41.9058 18.8362 39.3827 16.3126 36.2807 16.3126C33.1792 16.3126 30.6557 18.8362 30.6557 21.9377C30.6557 25.0391 33.1792 27.5627 36.2807 27.5627C39.3827 27.5627 41.9058 25.0391 41.9058 21.9377ZM33.4682 21.9377C33.4682 20.3869 34.73 19.1251 36.2807 19.1251C37.832 19.1251 39.0932 20.3869 39.0932 21.9377C39.0932 23.4884 37.832 24.7502 36.2807 24.7502C34.73 24.7502 33.4682 23.4884 33.4682 21.9377Z" fill="#3F3F3F"/>
<path d="M10.968 45.8442C10.968 48.9456 13.4916 51.4692 16.5931 51.4692C19.6951 51.4692 22.2181 48.9456 22.2181 45.8442C22.2181 42.7427 19.6951 40.2191 16.5931 40.2191C13.4916 40.2191 10.968 42.7427 10.968 45.8442ZM16.5931 43.0316C18.1443 43.0316 19.4056 44.2934 19.4056 45.8442C19.4056 47.3949 18.1443 48.6567 16.5931 48.6567C15.0423 48.6567 13.7805 47.3949 13.7805 45.8442C13.7805 44.2934 15.0423 43.0316 16.5931 43.0316Z" fill="#3F3F3F"/>
<path d="M23.6244 57.0942C23.6244 60.1956 26.1479 62.7192 29.2494 62.7192C32.3514 62.7192 34.8744 60.1956 34.8744 57.0942C34.8744 53.9927 32.3514 51.4691 29.2494 51.4691C26.1479 51.4691 23.6244 53.9927 23.6244 57.0942ZM32.0619 57.0942C32.0619 58.6449 30.8007 59.9067 29.2494 59.9067C27.6987 59.9067 26.4369 58.6449 26.4369 57.0942C26.4369 55.5434 27.6987 54.2816 29.2494 54.2816C30.8007 54.2816 32.0619 55.5434 32.0619 57.0942Z" fill="#3F3F3F"/>
<path d="M61.6346 13.3738C61.6346 10.0278 56.7665 2.18959 55.7904 0.652593C55.5322 0.246096 55.0845 0 54.6033 0C54.1215 0 53.6739 0.246096 53.4162 0.652593C52.5631 1.99568 48.7404 8.14807 47.7873 11.912C38.9488 8.28101 29.7361 8.37989 21.6463 12.2356C13.6025 16.0693 7.11562 23.5269 4.81726 32.9158C4.63214 33.6706 5.09412 34.4314 5.84833 34.616C5.96094 34.6435 6.07356 34.6566 6.18397 34.6566C6.81679 34.6566 7.39193 34.2265 7.54903 33.5844C9.54691 25.4226 15.2697 18.3902 22.8564 14.774C30.5277 11.1183 39.3421 11.1902 47.7533 14.9586C48.1944 16.8674 49.421 18.5066 51.1085 19.4745C50.2807 22.4875 49.6358 27.0606 49.2694 32.5736C49.1205 34.8116 49.02 37.1874 48.9706 39.6472C43.6306 42.7113 40.1139 48.5418 40.5544 55.5056C40.7214 58.1368 40.9736 62.1133 36.8306 65.7246C33.8714 68.3047 29.5158 69.0139 25.4646 67.5758C15.4087 64.0069 8.13406 54.8612 6.9305 44.2758C6.84315 43.504 6.14497 42.9503 5.37482 43.0371C4.60302 43.125 4.04876 43.8215 4.1361 44.5933C5.48633 56.4724 13.5679 66.3376 24.5241 70.2263C29.5329 72.0044 34.9563 71.0898 38.679 67.8444C43.8679 63.3207 43.5383 58.1209 43.3609 55.327C43.033 50.1376 45.2945 45.7474 48.9371 43.0255V43.031C48.9371 49.6916 49.4474 62.744 51.5941 68.8299C51.8995 69.6967 52.712 72 54.5621 72C56.4128 72 57.2252 69.6967 57.5306 68.8299C59.6642 62.7819 60.1871 49.8256 60.1871 43.031C60.1871 42.0659 60.1789 41.1161 60.163 40.1894C60.5969 40.1834 61.0369 40.1828 61.4824 40.19C64.1456 40.229 66.5648 38.6085 67.5079 36.1535C70.0925 29.4211 65.2887 22.715 59.6224 18.2973C60.8936 17.002 61.6346 15.2431 61.6346 13.3738ZM54.6033 4.10233C56.6319 7.53668 58.8221 11.8263 58.8221 13.3738C58.8221 15.8155 56.7934 17.6464 54.5149 17.5953C52.2484 17.5442 50.3845 15.6946 50.3845 13.3738C50.3845 11.8263 52.5741 7.53668 54.6033 4.10233ZM54.6033 20.4051C54.8516 20.4051 55.0988 20.3908 55.3432 20.365C56.0321 22.9402 56.6023 26.8651 56.9577 31.5024C55.3756 31.7057 53.7497 31.7018 52.1671 31.492C52.5225 26.8552 53.0938 22.9319 53.7837 20.3567C54.0545 20.3886 54.3281 20.4051 54.6033 20.4051ZM54.5621 68.6695C52.2901 63.8096 51.7496 49.1724 51.7496 43.0316C51.7496 42.2461 51.7677 40.5162 51.7683 40.5119C51.8007 38.3701 51.8732 36.2903 51.9825 34.3051C52.8493 34.4127 53.726 34.4671 54.6033 34.4671C55.4537 34.4671 56.3035 34.416 57.1434 34.3144C57.2252 35.8124 57.2856 37.3511 57.3235 38.9084C57.3576 40.2279 57.3746 41.6149 57.3746 43.0316C57.3746 49.3642 56.8028 63.8778 54.5621 68.6695ZM64.8822 35.1455C64.3603 36.5035 63.0101 37.4032 61.5264 37.3785C61.0435 37.3708 60.5645 37.3708 60.0927 37.378C60.0383 35.7476 59.9592 34.1425 59.8565 32.5901C59.8559 32.5808 59.8543 32.5714 59.8532 32.5621C59.5406 27.8561 59.0242 23.8356 58.3656 20.8879C64.0571 25.4945 66.54 30.8273 64.8822 35.1455Z" fill="#3F3F3F"/>
<path d="M6.74923 38.8128C6.74923 39.5895 6.11971 40.219 5.34297 40.219C4.56678 40.219 3.93671 39.5895 3.93671 38.8128C3.93671 38.036 4.56678 37.4065 5.34297 37.4065C6.11971 37.4065 6.74923 38.036 6.74923 38.8128Z" fill="#3F3F3F"/>
</g>
<defs>
<clipPath id="clip0_43_53">
<rect width="72" height="72" fill="white"/>
</clipPath>
</defs>
</svg>
