<svg width="88" height="88" viewBox="0 0 88 88" fill="none" xmlns="http://www.w3.org/2000/svg">
<path d="M38.9014 13.2085L21.2152 21.1081" stroke="#3F3F3F" stroke-width="3" stroke-miterlimit="10" stroke-linecap="round" stroke-linejoin="round"/>
<path d="M67.2313 21.1081L49.546 13.2085" stroke="#3F3F3F" stroke-width="3" stroke-miterlimit="10" stroke-linecap="round" stroke-linejoin="round"/>
<path d="M49.546 33.7629L67.2313 25.8633" stroke="#3F3F3F" stroke-width="3" stroke-miterlimit="10" stroke-linecap="round" stroke-linejoin="round"/>
<path d="M21.217 25.8633L38.9004 33.7619" stroke="#3F3F3F" stroke-width="3" stroke-miterlimit="10" stroke-linecap="round" stroke-linejoin="round"/>
<path d="M49.546 74.9304L67.2304 67.0317" stroke="#3F3F3F" stroke-width="3" stroke-miterlimit="10" stroke-linecap="round" stroke-linejoin="round"/>
<path d="M21.218 67.0317L38.9005 74.9304" stroke="#3F3F3F" stroke-width="3" stroke-miterlimit="10" stroke-linecap="round" stroke-linejoin="round"/>
<path d="M44.2243 41.9698C47.4448 41.9698 50.0555 39.3592 50.0555 36.1387C50.0555 32.9183 47.4448 30.3076 44.2243 30.3076C41.0039 30.3076 38.3932 32.9183 38.3932 36.1387C38.3932 39.3592 41.0039 41.9698 44.2243 41.9698Z" stroke="#3F3F3F" stroke-width="3" stroke-miterlimit="10" stroke-linecap="round" stroke-linejoin="round"/>
<path d="M44.2243 83.1402C47.4448 83.1402 50.0555 80.5296 50.0555 77.3091C50.0555 74.0887 47.4448 71.478 44.2243 71.478C41.0039 71.478 38.3932 74.0887 38.3932 77.3091C38.3932 80.5296 41.0039 83.1402 44.2243 83.1402Z" stroke="#3F3F3F" stroke-width="3" stroke-miterlimit="10" stroke-linecap="round" stroke-linejoin="round"/>
<path d="M44.2243 16.6623C47.4448 16.6623 50.0555 14.0516 50.0555 10.8311C50.0555 7.61069 47.4448 5 44.2243 5C41.0039 5 38.3932 7.61069 38.3932 10.8311C38.3932 14.0516 41.0039 16.6623 44.2243 16.6623Z" stroke="#3F3F3F" stroke-width="3" stroke-miterlimit="10" stroke-linecap="round" stroke-linejoin="round"/>
<path d="M72.5552 29.317C75.7757 29.317 78.3864 26.7063 78.3864 23.4859C78.3864 20.2654 75.7757 17.6548 72.5552 17.6548C69.3348 17.6548 66.7241 20.2654 66.7241 23.4859C66.7241 26.7063 69.3348 29.317 72.5552 29.317Z" stroke="#3F3F3F" stroke-width="3" stroke-miterlimit="10" stroke-linecap="round" stroke-linejoin="round"/>
<path d="M72.5552 70.4855C75.7757 70.4855 78.3864 67.8748 78.3864 64.6543C78.3864 61.4339 75.7757 58.8232 72.5552 58.8232C69.3348 58.8232 66.7241 61.4339 66.7241 64.6543C66.7241 67.8748 69.3348 70.4855 72.5552 70.4855Z" stroke="#3F3F3F" stroke-width="3" stroke-miterlimit="10" stroke-linecap="round" stroke-linejoin="round"/>
<path d="M15.8927 29.317C19.1131 29.317 21.7238 26.7063 21.7238 23.4859C21.7238 20.2654 19.1131 17.6548 15.8927 17.6548C12.6722 17.6548 10.0615 20.2654 10.0615 23.4859C10.0615 26.7063 12.6722 29.317 15.8927 29.317Z" stroke="#3F3F3F" stroke-width="3" stroke-miterlimit="10" stroke-linecap="round" stroke-linejoin="round"/>
<path d="M15.8927 70.4855C19.1131 70.4855 21.7238 67.8748 21.7238 64.6543C21.7238 61.4339 19.1131 58.8232 15.8927 58.8232C12.6722 58.8232 10.0615 61.4339 10.0615 64.6543C10.0615 67.8748 12.6722 70.4855 15.8927 70.4855Z" stroke="#3F3F3F" stroke-width="3" stroke-miterlimit="10" stroke-linecap="round" stroke-linejoin="round"/>
<path d="M72.5544 58.8229V29.3174" stroke="#3F3F3F" stroke-width="3" stroke-miterlimit="10" stroke-linecap="round" stroke-linejoin="round"/>
<path d="M15.8928 58.8229V29.3174" stroke="#3F3F3F" stroke-width="3" stroke-miterlimit="10" stroke-linecap="round" stroke-linejoin="round"/>
<path d="M44.2246 41.9722V71.4777" stroke="#3F3F3F" stroke-width="3" stroke-miterlimit="10" stroke-linecap="round" stroke-linejoin="round"/>
</svg>
