<svg width="72" height="72" viewBox="0 0 72 72" fill="none" xmlns="http://www.w3.org/2000/svg">
<path d="M57 3C57.8284 3 58.5 3.67157 58.5 4.5V25.5C58.5 26.3284 57.8284 27 57 27H39.6211L58.0605 45.4395C58.4895 45.8685 58.6179 46.5137 58.3857 47.0742C58.1535 47.6346 57.6066 48 57 48H37.5V67.5C37.5 68.1066 37.1346 68.6535 36.5742 68.8857C36.0137 69.1179 35.3685 68.9895 34.9395 68.5605L13.9395 47.5605C13.6581 47.2792 13.5 46.8978 13.5 46.5V25.5C13.5 24.6716 14.1716 24 15 24H32.3789L13.9395 5.56055C13.5105 5.13155 13.3821 4.48629 13.6143 3.92578C13.8465 3.36538 14.3934 3 15 3H57ZM34.5 63.8789V48H18.6211L34.5 63.8789ZM16.5 45H53.3789L35.3789 27H16.5V45ZM36.6211 24H55.5V6H18.6211L36.6211 24Z" fill="#3F3F3F"/>
</svg>
