<svg width="88" height="88" viewBox="0 0 88 88" fill="none" xmlns="http://www.w3.org/2000/svg">
<path d="M58.8532 54.3871C72.6305 54.3871 83.7992 43.2184 83.7992 29.4411C83.7992 15.6638 72.6305 4.49512 58.8532 4.49512C45.0759 4.49512 33.9072 15.6638 33.9072 29.4411C33.9072 43.2184 45.0759 54.3871 58.8532 54.3871Z" stroke="#3F3F3F" stroke-width="3" stroke-miterlimit="10"/>
<path d="M74.6492 29.4413C74.6492 29.4413 67.5772 38.2744 58.8532 38.2744C50.1292 38.2744 43.0572 29.4413 43.0572 29.4413C43.0572 29.4413 50.1292 20.6084 58.8532 20.6084C67.5772 20.6084 74.6492 29.4413 74.6492 29.4413Z" stroke="#3F3F3F" stroke-width="3" stroke-miterlimit="10" stroke-linecap="round" stroke-linejoin="round"/>
<path d="M58.8532 32.8522C60.7371 32.8522 62.2642 31.3251 62.2642 29.4412C62.2642 27.5574 60.7371 26.0303 58.8532 26.0303C56.9694 26.0303 55.4422 27.5574 55.4422 29.4412C55.4422 31.3251 56.9694 32.8522 58.8532 32.8522Z" stroke="#3F3F3F" stroke-width="3" stroke-miterlimit="10" stroke-linecap="round" stroke-linejoin="round"/>
<path d="M41.2142 47.0801L34.0562 54.238" stroke="#3F3F3F" stroke-width="3" stroke-miterlimit="10" stroke-linecap="round" stroke-linejoin="round"/>
<path d="M8.56926 82.0011L6.29424 79.7261C4.10224 77.5341 4.10224 73.9811 6.29424 71.7891L27.7792 50.3041C28.4262 49.6571 29.4742 49.6571 30.1212 50.3041L37.9913 58.1741C38.6383 58.8211 38.6383 59.8691 37.9913 60.5161L16.5062 82.0011C14.3142 84.1921 10.7603 84.1921 8.56926 82.0011Z" stroke="#3F3F3F" stroke-width="3" stroke-miterlimit="10" stroke-linecap="round" stroke-linejoin="round"/>
<path d="M14.3612 63.7212L24.5732 73.9332" stroke="#3F3F3F" stroke-width="3" stroke-miterlimit="10" stroke-linecap="round" stroke-linejoin="round"/>
</svg>
