<svg width="88" height="88" viewBox="0 0 88 88" fill="none" xmlns="http://www.w3.org/2000/svg">
<path d="M49.4033 14.5684C64.0603 16.8054 75.6423 28.3874 77.8793 43.0444" stroke="#3F3F3F" stroke-width="3" stroke-miterlimit="10" stroke-linecap="round"/>
<path d="M10.5703 43.0444C12.8073 28.3874 24.3893 16.8054 39.0463 14.5684" stroke="#3F3F3F" stroke-width="3" stroke-miterlimit="10" stroke-linecap="round"/>
<path d="M73.092 51.0709V45.3749C73.092 44.0879 74.135 43.0449 75.422 43.0449H81.118C82.405 43.0449 83.448 44.0879 83.448 45.3749V51.0709C83.448 52.3579 82.405 53.4009 81.118 53.4009H75.422C74.135 53.4019 73.092 52.3579 73.092 51.0709Z" stroke="#3F3F3F" stroke-width="3" stroke-miterlimit="10" stroke-linecap="round"/>
<path d="M5 51.0709V45.3749C5 44.0879 6.043 43.0449 7.33 43.0449H13.026C14.313 43.0449 15.356 44.0879 15.356 45.3749V51.0709C15.356 52.3579 14.313 53.4009 13.026 53.4009H7.33C6.043 53.4019 5 52.3579 5 51.0709Z" stroke="#3F3F3F" stroke-width="3" stroke-miterlimit="10" stroke-linecap="round"/>
<path d="M39.046 17.026V11.33C39.046 10.043 40.089 9 41.376 9H47.072C48.359 9 49.402 10.043 49.402 11.33V17.026C49.402 18.313 48.359 19.356 47.072 19.356H41.376C40.089 19.356 39.046 18.313 39.046 17.026Z" stroke="#3F3F3F" stroke-width="3" stroke-miterlimit="10" stroke-linecap="round"/>
<path d="M49.4033 14.5684H70.2283" stroke="#3F3F3F" stroke-width="3" stroke-miterlimit="10" stroke-linecap="round"/>
<path d="M18.2207 14.5684H39.0457" stroke="#3F3F3F" stroke-width="3" stroke-miterlimit="10" stroke-linecap="round"/>
<path d="M77.9766 22.2207V43.0457" stroke="#3F3F3F" stroke-width="3" stroke-miterlimit="10" stroke-linecap="round"/>
<path d="M10.5703 22.2207V43.0457" stroke="#3F3F3F" stroke-width="3" stroke-miterlimit="10" stroke-linecap="round"/>
<path d="M44.801 33.6855L33.694 51.6736C33.096 52.6416 33.142 53.8755 33.811 54.7965L39.228 62.2545C39.576 62.7335 39.764 63.3105 39.764 63.9035V71.5845H44.802H49.84V63.9035C49.84 63.3115 50.027 62.7345 50.376 62.2545L55.793 54.7965C56.462 53.8755 56.508 52.6426 55.91 51.6736L44.801 33.6855Z" stroke="#3F3F3F" stroke-width="3" stroke-miterlimit="10" stroke-linecap="round" stroke-linejoin="round"/>
<path d="M44.8008 33.6855V50.8315" stroke="#3F3F3F" stroke-width="3" stroke-miterlimit="10" stroke-linecap="round" stroke-linejoin="round"/>
<path d="M52.7554 79.14H36.8464C35.9324 79.14 35.1924 78.399 35.1924 77.486V73.238C35.1924 72.324 35.9334 71.584 36.8464 71.584H52.7554C53.6694 71.584 54.4094 72.325 54.4094 73.238V77.486C54.4094 78.399 53.6694 79.14 52.7554 79.14Z" stroke="#3F3F3F" stroke-width="3" stroke-miterlimit="10" stroke-linecap="round" stroke-linejoin="round"/>
</svg>
