<svg width="88" height="88" viewBox="0 0 88 88" fill="none" xmlns="http://www.w3.org/2000/svg">
<path d="M19.413 9.06665L5.32788 6.55859L7.83594 20.6436C9.49894 29.9806 13.6779 38.1886 19.9769 44.4876L38.5009 63.0116L50.1409 51.3716L61.7809 39.7316L43.2559 21.2076C36.9579 14.9096 28.75 10.7297 19.413 9.06665Z" stroke="#3F3F3F" stroke-width="3" stroke-miterlimit="10" stroke-linecap="round" stroke-linejoin="round"/>
<path d="M19.9769 44.4878L27.653 73.8608L38.502 63.0118L19.9769 44.4878Z" stroke="#3F3F3F" stroke-width="3" stroke-miterlimit="10" stroke-linecap="round" stroke-linejoin="round"/>
<path d="M43.257 21.2075L72.6299 28.8835L61.7819 39.7325L43.257 21.2075Z" stroke="#3F3F3F" stroke-width="3" stroke-miterlimit="10" stroke-linecap="round" stroke-linejoin="round"/>
<path d="M27.7349 35.9008C31.565 35.9008 34.6699 32.7959 34.6699 28.9658C34.6699 25.1357 31.565 22.0308 27.7349 22.0308C23.9048 22.0308 20.7999 25.1357 20.7999 28.9658C20.7999 32.7959 23.9048 35.9008 27.7349 35.9008Z" stroke="#3F3F3F" stroke-width="3" stroke-miterlimit="10" stroke-linecap="round" stroke-linejoin="round"/>
<path d="M62.6989 51.3725C66.1669 54.8405 72.938 67.2335 69.47 70.7015C66.002 74.1695 53.6089 67.3975 50.1409 63.9305C46.6729 60.4625 46.6729 54.8405 50.1409 51.3725C53.6089 47.9045 59.2319 47.9045 62.6989 51.3725Z" stroke="#3F3F3F" stroke-width="3" stroke-miterlimit="10" stroke-linecap="round" stroke-linejoin="round"/>
<path d="M67.8549 45.8057L71.918 49.8687" stroke="#3F3F3F" stroke-width="3" stroke-miterlimit="10" stroke-linecap="round" stroke-linejoin="round"/>
<path d="M77.5809 55.5317L83.121 61.0717" stroke="#3F3F3F" stroke-width="3" stroke-miterlimit="10" stroke-linecap="round" stroke-linejoin="round"/>
<path d="M44.7589 69.2686L47.2419 71.7516" stroke="#3F3F3F" stroke-width="3" stroke-miterlimit="10" stroke-linecap="round" stroke-linejoin="round"/>
<path d="M52.3319 76.8418L57.0709 81.5818" stroke="#3F3F3F" stroke-width="3" stroke-miterlimit="10" stroke-linecap="round" stroke-linejoin="round"/>
</svg>
