<svg width="72" height="72" viewBox="0 0 72 72" fill="none" xmlns="http://www.w3.org/2000/svg">
<path d="M30.8544 47.7509L25.712 38.2008L35.2622 25.712L37.4661 24.9774L46.2817 38.2008L41.1393 47.7509H30.8544Z" fill="white" stroke="#3F3F3F"/>
<mask id="path-2-inside-1_43_61" fill="white">
<path d="M71.9931 32.5613C71.9923 31.9178 71.7564 31.2968 71.3298 30.8151C70.9033 30.3334 70.3154 30.0241 69.6767 29.9455L63.314 29.1131C62.6259 26.4168 61.5572 23.8321 60.1402 21.4372L64.056 16.4134C64.4509 15.9055 64.6466 15.2709 64.6064 14.6288C64.5661 13.9868 64.2927 13.3816 63.8376 12.9269L59.0191 8.11599C58.5632 7.66207 57.9571 7.39026 57.3149 7.35166C56.6727 7.31305 56.0385 7.51029 55.5314 7.90632L50.4355 11.8234C48.0456 10.3975 45.4648 9.31952 42.7708 8.62194L41.9886 2.31195C41.9087 1.67366 41.5985 1.08649 41.1163 0.660769C40.634 0.235049 40.0129 7.71494e-05 39.3697 0L32.56 0.00627368C31.9167 0.00773457 31.296 0.244031 30.8146 0.670781C30.3332 1.09753 30.0241 1.68537 29.9455 2.32388L29.1124 8.68535C26.4161 9.37372 23.8317 10.4428 21.4371 11.8604L16.4133 7.94462C15.9055 7.54969 15.2709 7.35377 14.6289 7.39364C13.9868 7.43352 13.3813 7.70645 12.9263 8.16118L8.11656 12.9809C7.66235 13.4367 7.3903 14.0427 7.35157 14.685C7.31284 15.3273 7.5101 15.9616 7.90626 16.4686L11.8233 21.5646C10.3974 23.9543 9.31944 26.5352 8.62194 29.2292L2.31195 30.012C1.67364 30.0919 1.08646 30.402 0.660735 30.8843C0.235009 31.3665 4.70996e-05 31.9877 0 32.6309L0.00627368 39.44C0.00773457 40.0833 0.244031 40.704 0.670781 41.1854C1.09753 41.6668 1.68537 41.9759 2.32388 42.0545L8.68535 42.8875C9.37372 45.5838 10.4428 48.1682 11.8604 50.5628L7.94462 55.5866C7.54964 56.0944 7.35368 56.729 7.39356 57.3711C7.43343 58.0132 7.7064 58.6186 8.16118 59.0737L12.9809 63.8834C13.4367 64.3375 14.0427 64.6094 14.685 64.6481C15.3272 64.6869 15.9615 64.4897 16.4686 64.0937L21.5645 60.1766C23.9543 61.6025 26.5352 62.6805 29.2292 63.3781L30.012 69.688C30.0919 70.3263 30.4021 70.9135 30.8843 71.3392C31.3666 71.7649 31.9877 71.9999 32.6309 72L39.44 71.9937C40.0833 71.9924 40.704 71.7562 41.1854 71.3294C41.6667 70.9026 41.9756 70.3147 42.0539 69.6761L42.8875 63.3146C45.5839 62.626 48.1685 61.557 50.5635 60.1396L55.5866 64.0554C56.0944 64.4507 56.7291 64.6468 57.3714 64.6069C58.0137 64.5671 58.6193 64.2939 59.0743 63.8388L63.884 59.0191C64.338 58.5632 64.6098 57.9571 64.6484 57.3149C64.687 56.6727 64.4898 56.0384 64.0937 55.5314L60.1779 50.4347C61.6025 48.0447 62.68 45.4642 63.378 42.7708L69.688 41.988C70.3263 41.9078 70.9133 41.5975 71.3391 41.1154C71.7648 40.6332 72 40.0123 72.0006 39.3691L71.9931 32.5613ZM69.3717 39.4369L63.0616 40.219C62.5316 40.2844 62.0343 40.5102 61.6362 40.8662C61.2381 41.2222 60.9584 41.6914 60.8344 42.2108C60.2245 44.6396 59.26 46.9652 57.972 49.1128C57.6926 49.5687 57.5594 50.0992 57.5901 50.6331C57.6208 51.167 57.8141 51.6786 58.144 52.0995L62.0636 57.2024L57.1672 62.0278L52.1428 58.1114C51.7213 57.7831 51.2096 57.5913 50.6761 57.5615C50.1426 57.5318 49.6128 57.6656 49.1573 57.945C47.0122 59.2388 44.6874 60.2081 42.2585 60.8213C41.7398 60.9475 41.272 61.2287 40.9171 61.6275C40.5623 62.0263 40.3374 62.5237 40.2723 63.0535L39.4375 69.4225L32.5631 69.3717L31.781 63.0623C31.7151 62.5322 31.489 62.0348 31.133 61.6365C30.777 61.2382 30.308 60.958 29.7886 60.8332C27.3591 60.2247 25.0331 59.2601 22.886 57.9707C22.43 57.692 21.8997 57.5592 21.3662 57.5901C20.8327 57.6209 20.3213 57.814 19.9005 58.1434L14.7976 62.0636L9.9722 57.1672L13.8886 52.1428C14.217 51.7212 14.4088 51.2094 14.4385 50.6758C14.4682 50.1422 14.3344 49.6122 14.055 49.1567C12.7613 47.0122 11.7921 44.688 11.1787 42.2598C11.0532 41.7406 10.7722 41.2722 10.3733 40.917C9.97444 40.5619 9.47664 40.337 8.94648 40.2724L2.57748 39.4375L2.62834 32.5631L8.93771 31.781C9.46783 31.7151 9.96523 31.489 10.3635 31.133C10.7618 30.777 11.042 30.308 11.1668 29.7886C11.7753 27.3591 12.7399 25.0331 14.0293 22.886C14.3081 22.43 14.441 21.8998 14.4102 21.3662C14.3793 20.8326 14.1862 20.3212 13.8566 19.9005L9.93643 14.7976L14.8328 9.9722L19.8572 13.8886C20.2787 14.2172 20.7906 14.4093 21.3242 14.439C21.8579 14.4687 22.3879 14.3347 22.8433 14.055C24.9878 12.7613 27.312 11.7921 29.7402 11.1787C30.2594 11.0532 30.7278 10.7722 31.083 10.3733C31.4381 9.97444 31.663 9.47664 31.7276 8.94648L32.5625 2.57748L39.4375 2.62832L40.2197 8.9377C40.2856 9.46761 40.5115 9.96483 40.8673 10.3631C41.223 10.7613 41.6917 11.0417 42.2108 11.1668C44.6406 11.7755 46.967 12.7401 49.1147 14.0293C49.5708 14.3076 50.1009 14.4402 50.6344 14.4094C51.1678 14.3785 51.6792 14.1857 52.1002 13.8566L57.2037 9.93579L62.0272 14.8328L58.1114 19.8565C57.783 20.2783 57.5912 20.7903 57.5615 21.324C57.5319 21.8577 57.6659 22.3878 57.9457 22.8433C59.239 24.9885 60.2079 27.3133 60.8207 29.7421C60.947 30.2609 61.2284 30.7289 61.6274 31.0836C62.0265 31.4384 62.5242 31.663 63.0542 31.7276L69.422 32.5625L69.4295 39.3716L70.7151 39.3703L69.3717 39.4369Z"/>
</mask>
<path d="M71.9931 32.5613C71.9923 31.9178 71.7564 31.2968 71.3298 30.8151C70.9033 30.3334 70.3154 30.0241 69.6767 29.9455L63.314 29.1131C62.6259 26.4168 61.5572 23.8321 60.1402 21.4372L64.056 16.4134C64.4509 15.9055 64.6466 15.2709 64.6064 14.6288C64.5661 13.9868 64.2927 13.3816 63.8376 12.9269L59.0191 8.11599C58.5632 7.66207 57.9571 7.39026 57.3149 7.35166C56.6727 7.31305 56.0385 7.51029 55.5314 7.90632L50.4355 11.8234C48.0456 10.3975 45.4648 9.31952 42.7708 8.62194L41.9886 2.31195C41.9087 1.67366 41.5985 1.08649 41.1163 0.660769C40.634 0.235049 40.0129 7.71494e-05 39.3697 0L32.56 0.00627368C31.9167 0.00773457 31.296 0.244031 30.8146 0.670781C30.3332 1.09753 30.0241 1.68537 29.9455 2.32388L29.1124 8.68535C26.4161 9.37372 23.8317 10.4428 21.4371 11.8604L16.4133 7.94462C15.9055 7.54969 15.2709 7.35377 14.6289 7.39364C13.9868 7.43352 13.3813 7.70645 12.9263 8.16118L8.11656 12.9809C7.66235 13.4367 7.3903 14.0427 7.35157 14.685C7.31284 15.3273 7.5101 15.9616 7.90626 16.4686L11.8233 21.5646C10.3974 23.9543 9.31944 26.5352 8.62194 29.2292L2.31195 30.012C1.67364 30.0919 1.08646 30.402 0.660735 30.8843C0.235009 31.3665 4.70996e-05 31.9877 0 32.6309L0.00627368 39.44C0.00773457 40.0833 0.244031 40.704 0.670781 41.1854C1.09753 41.6668 1.68537 41.9759 2.32388 42.0545L8.68535 42.8875C9.37372 45.5838 10.4428 48.1682 11.8604 50.5628L7.94462 55.5866C7.54964 56.0944 7.35368 56.729 7.39356 57.3711C7.43343 58.0132 7.7064 58.6186 8.16118 59.0737L12.9809 63.8834C13.4367 64.3375 14.0427 64.6094 14.685 64.6481C15.3272 64.6869 15.9615 64.4897 16.4686 64.0937L21.5645 60.1766C23.9543 61.6025 26.5352 62.6805 29.2292 63.3781L30.012 69.688C30.0919 70.3263 30.4021 70.9135 30.8843 71.3392C31.3666 71.7649 31.9877 71.9999 32.6309 72L39.44 71.9937C40.0833 71.9924 40.704 71.7562 41.1854 71.3294C41.6667 70.9026 41.9756 70.3147 42.0539 69.6761L42.8875 63.3146C45.5839 62.626 48.1685 61.557 50.5635 60.1396L55.5866 64.0554C56.0944 64.4507 56.7291 64.6468 57.3714 64.6069C58.0137 64.5671 58.6193 64.2939 59.0743 63.8388L63.884 59.0191C64.338 58.5632 64.6098 57.9571 64.6484 57.3149C64.687 56.6727 64.4898 56.0384 64.0937 55.5314L60.1779 50.4347C61.6025 48.0447 62.68 45.4642 63.378 42.7708L69.688 41.988C70.3263 41.9078 70.9133 41.5975 71.3391 41.1154C71.7648 40.6332 72 40.0123 72.0006 39.3691L71.9931 32.5613ZM69.3717 39.4369L63.0616 40.219C62.5316 40.2844 62.0343 40.5102 61.6362 40.8662C61.2381 41.2222 60.9584 41.6914 60.8344 42.2108C60.2245 44.6396 59.26 46.9652 57.972 49.1128C57.6926 49.5687 57.5594 50.0992 57.5901 50.6331C57.6208 51.167 57.8141 51.6786 58.144 52.0995L62.0636 57.2024L57.1672 62.0278L52.1428 58.1114C51.7213 57.7831 51.2096 57.5913 50.6761 57.5615C50.1426 57.5318 49.6128 57.6656 49.1573 57.945C47.0122 59.2388 44.6874 60.2081 42.2585 60.8213C41.7398 60.9475 41.272 61.2287 40.9171 61.6275C40.5623 62.0263 40.3374 62.5237 40.2723 63.0535L39.4375 69.4225L32.5631 69.3717L31.781 63.0623C31.7151 62.5322 31.489 62.0348 31.133 61.6365C30.777 61.2382 30.308 60.958 29.7886 60.8332C27.3591 60.2247 25.0331 59.2601 22.886 57.9707C22.43 57.692 21.8997 57.5592 21.3662 57.5901C20.8327 57.6209 20.3213 57.814 19.9005 58.1434L14.7976 62.0636L9.9722 57.1672L13.8886 52.1428C14.217 51.7212 14.4088 51.2094 14.4385 50.6758C14.4682 50.1422 14.3344 49.6122 14.055 49.1567C12.7613 47.0122 11.7921 44.688 11.1787 42.2598C11.0532 41.7406 10.7722 41.2722 10.3733 40.917C9.97444 40.5619 9.47664 40.337 8.94648 40.2724L2.57748 39.4375L2.62834 32.5631L8.93771 31.781C9.46783 31.7151 9.96523 31.489 10.3635 31.133C10.7618 30.777 11.042 30.308 11.1668 29.7886C11.7753 27.3591 12.7399 25.0331 14.0293 22.886C14.3081 22.43 14.441 21.8998 14.4102 21.3662C14.3793 20.8326 14.1862 20.3212 13.8566 19.9005L9.93643 14.7976L14.8328 9.9722L19.8572 13.8886C20.2787 14.2172 20.7906 14.4093 21.3242 14.439C21.8579 14.4687 22.3879 14.3347 22.8433 14.055C24.9878 12.7613 27.312 11.7921 29.7402 11.1787C30.2594 11.0532 30.7278 10.7722 31.083 10.3733C31.4381 9.97444 31.663 9.47664 31.7276 8.94648L32.5625 2.57748L39.4375 2.62832L40.2197 8.9377C40.2856 9.46761 40.5115 9.96483 40.8673 10.3631C41.223 10.7613 41.6917 11.0417 42.2108 11.1668C44.6406 11.7755 46.967 12.7401 49.1147 14.0293C49.5708 14.3076 50.1009 14.4402 50.6344 14.4094C51.1678 14.3785 51.6792 14.1857 52.1002 13.8566L57.2037 9.93579L62.0272 14.8328L58.1114 19.8565C57.783 20.2783 57.5912 20.7903 57.5615 21.324C57.5319 21.8577 57.6659 22.3878 57.9457 22.8433C59.239 24.9885 60.2079 27.3133 60.8207 29.7421C60.947 30.2609 61.2284 30.7289 61.6274 31.0836C62.0265 31.4384 62.5242 31.663 63.0542 31.7276L69.422 32.5625L69.4295 39.3716L70.7151 39.3703L69.3717 39.4369Z" fill="#3F3F3F" stroke="#3F3F3F" stroke-width="16" mask="url(#path-2-inside-1_43_61)"/>
<mask id="path-3-inside-2_43_61" fill="white">
<path d="M36 16.2082C30.7552 16.233 25.7325 18.3289 22.0256 22.0394C18.3187 25.75 16.2279 30.7748 16.2083 36.0197C16.1953 53.5521 37.6485 62.4115 50.0099 49.9808C62.4219 37.7486 53.4377 16.0922 36 16.2082ZM48.1894 48.165C44.9525 51.3779 40.5779 53.1828 36.0171 53.1872C31.4564 53.1917 27.0783 51.3952 23.8351 48.1886C13.0045 37.4953 20.7804 18.6964 36.0003 18.7795C51.1705 18.6805 58.9923 37.5221 48.1894 48.165Z"/>
</mask>
<path d="M36 16.2082C30.7552 16.233 25.7325 18.3289 22.0256 22.0394C18.3187 25.75 16.2279 30.7748 16.2083 36.0197C16.1953 53.5521 37.6485 62.4115 50.0099 49.9808C62.4219 37.7486 53.4377 16.0922 36 16.2082ZM48.1894 48.165C44.9525 51.3779 40.5779 53.1828 36.0171 53.1872C31.4564 53.1917 27.0783 51.3952 23.8351 48.1886C13.0045 37.4953 20.7804 18.6964 36.0003 18.7795C51.1705 18.6805 58.9923 37.5221 48.1894 48.165Z" fill="#3F3F3F"/>
<path d="M36 16.2082L36.0378 24.2081L36.0455 24.2081L36.0532 24.2081L36 16.2082ZM16.2083 36.0197L8.20837 35.9898L8.20833 36.0018L8.20832 36.0138L16.2083 36.0197ZM50.0099 49.9808L44.3945 44.2828L44.3657 44.3111L44.3373 44.3398L50.0099 49.9808ZM48.1894 48.165L42.5749 42.466L42.5643 42.4765L42.5537 42.4871L48.1894 48.165ZM23.8351 48.1886L29.4598 42.4998L29.4558 42.4958L23.8351 48.1886ZM36.0003 18.7795L35.9566 26.7794L36.0045 26.7797L36.0525 26.7794L36.0003 18.7795ZM36 16.2082L35.9622 8.20832C28.6074 8.24308 21.5641 11.1821 16.3659 16.3854L22.0256 22.0394L27.6853 27.6935C29.9009 25.4757 32.903 24.223 36.0378 24.2081L36 16.2082ZM22.0256 22.0394L16.3659 16.3854C11.1678 21.5887 8.2358 28.635 8.20837 35.9898L16.2083 36.0197L24.2083 36.0495C24.22 32.9146 25.4697 29.9113 27.6853 27.6935L22.0256 22.0394ZM16.2083 36.0197L8.20832 36.0138C8.19003 60.6872 38.286 73.1159 55.6825 55.6218L50.0099 49.9808L44.3373 44.3398C37.0109 51.7071 24.2006 46.417 24.2083 36.0256L16.2083 36.0197ZM50.0099 49.9808L55.6253 55.6788C73.1694 38.3889 60.5413 8.04478 35.9468 8.20841L36 16.2082L36.0532 24.2081C46.3342 24.1397 51.6744 37.1083 44.3945 44.2828L50.0099 49.9808ZM48.1894 48.165L42.5537 42.4871C40.8133 44.2144 38.4614 45.1849 36.0094 45.1872L36.0171 53.1872L36.0249 61.1872C42.6944 61.1807 49.0916 58.5413 53.8251 53.8429L48.1894 48.165ZM36.0171 53.1872L36.0094 45.1872C33.5573 45.1896 31.2035 44.2238 29.4598 42.4998L23.8351 48.1886L18.2105 53.8775C22.9531 58.5667 29.3554 61.1937 36.0249 61.1872L36.0171 53.1872ZM23.8351 48.1886L29.4558 42.4958C23.729 36.8416 27.9103 26.7355 35.9566 26.7794L36.0003 18.7795L36.0439 10.7796C13.6505 10.6574 2.28005 38.149 18.2145 53.8814L23.8351 48.1886ZM36.0003 18.7795L36.0525 26.7794C44.0722 26.727 48.2403 36.8846 42.5749 42.466L48.1894 48.165L53.8039 53.8639C69.7443 38.1596 58.2688 10.6341 35.9481 10.7797L36.0003 18.7795Z" fill="#3F3F3F" mask="url(#path-3-inside-2_43_61)"/>
<mask id="path-5-inside-3_43_61" fill="white">
<path d="M38.1029 24.0298C37.8626 23.697 37.5466 23.426 37.1811 23.2391C36.8156 23.0521 36.411 22.9546 36.0004 22.9546C35.5899 22.9545 35.1852 23.0519 34.8197 23.2388C34.4541 23.4256 34.1381 23.6965 33.8977 24.0293L24.8803 36.7785C24.6032 37.1736 24.4419 37.6382 24.4146 38.1199C24.3873 38.6017 24.4951 39.0816 24.7259 39.5054L29.243 47.7237C29.4651 48.128 29.7917 48.4652 30.1887 48.7001C30.5857 48.935 31.0385 49.0589 31.4997 49.0589H40.4996C40.961 49.0589 41.4138 48.935 41.8109 48.7001C42.208 48.4652 42.5347 48.128 42.7569 47.7237L47.2729 39.5072C47.5043 39.0832 47.6127 38.6029 47.5856 38.1207C47.5585 37.6384 47.3972 37.1733 47.1197 36.7778L38.1029 24.0298ZM35.9954 37.8935C36.4739 37.8963 36.9319 38.0879 37.2699 38.4265C37.6079 38.7651 37.7986 39.2235 37.8005 39.702C37.8024 40.1804 37.6154 40.6403 37.2801 40.9816C36.9448 41.3229 36.4884 41.5181 36.01 41.5247C35.5315 41.5219 35.0735 41.3304 34.7355 40.9918C34.3975 40.6531 34.2068 40.1948 34.2049 39.7163C34.203 39.2379 34.39 38.778 34.7253 38.4367C35.0606 38.0954 35.517 37.9002 35.9954 37.8935ZM40.4996 46.4876L31.4966 46.4857L26.9794 38.263L34.7119 27.331V35.5392C33.7109 35.8501 32.8547 36.51 32.299 37.3987C31.7433 38.2875 31.525 39.3462 31.6839 40.3823C31.8427 41.4183 32.3681 42.363 33.1644 43.0445C33.9608 43.726 34.9754 44.0991 36.0235 44.0959C37.0717 44.0927 38.0839 43.7135 38.8762 43.0271C39.6684 42.3408 40.188 41.3929 40.3405 40.3559C40.493 39.3188 40.2682 38.2615 39.7071 37.3761C39.146 36.4908 38.2859 35.8362 37.283 35.5314L37.2831 27.3246L45.0206 38.2674L40.4996 46.4876Z"/>
</mask>
<path d="M38.1029 24.0298C37.8626 23.697 37.5466 23.426 37.1811 23.2391C36.8156 23.0521 36.411 22.9546 36.0004 22.9546C35.5899 22.9545 35.1852 23.0519 34.8197 23.2388C34.4541 23.4256 34.1381 23.6965 33.8977 24.0293L24.8803 36.7785C24.6032 37.1736 24.4419 37.6382 24.4146 38.1199C24.3873 38.6017 24.4951 39.0816 24.7259 39.5054L29.243 47.7237C29.4651 48.128 29.7917 48.4652 30.1887 48.7001C30.5857 48.935 31.0385 49.0589 31.4997 49.0589H40.4996C40.961 49.0589 41.4138 48.935 41.8109 48.7001C42.208 48.4652 42.5347 48.128 42.7569 47.7237L47.2729 39.5072C47.5043 39.0832 47.6127 38.6029 47.5856 38.1207C47.5585 37.6384 47.3972 37.1733 47.1197 36.7778L38.1029 24.0298ZM35.9954 37.8935C36.4739 37.8963 36.9319 38.0879 37.2699 38.4265C37.6079 38.7651 37.7986 39.2235 37.8005 39.702C37.8024 40.1804 37.6154 40.6403 37.2801 40.9816C36.9448 41.3229 36.4884 41.5181 36.01 41.5247C35.5315 41.5219 35.0735 41.3304 34.7355 40.9918C34.3975 40.6531 34.2068 40.1948 34.2049 39.7163C34.203 39.2379 34.39 38.778 34.7253 38.4367C35.0606 38.0954 35.517 37.9002 35.9954 37.8935ZM40.4996 46.4876L31.4966 46.4857L26.9794 38.263L34.7119 27.331V35.5392C33.7109 35.8501 32.8547 36.51 32.299 37.3987C31.7433 38.2875 31.525 39.3462 31.6839 40.3823C31.8427 41.4183 32.3681 42.363 33.1644 43.0445C33.9608 43.726 34.9754 44.0991 36.0235 44.0959C37.0717 44.0927 38.0839 43.7135 38.8762 43.0271C39.6684 42.3408 40.188 41.3929 40.3405 40.3559C40.493 39.3188 40.2682 38.2615 39.7071 37.3761C39.146 36.4908 38.2859 35.8362 37.283 35.5314L37.2831 27.3246L45.0206 38.2674L40.4996 46.4876Z" fill="#3F3F3F"/>
<path d="M38.1029 24.0298L44.6343 19.4101L44.6115 19.378L44.5885 19.346L38.1029 24.0298ZM33.8977 24.0293L27.4134 19.3438L27.3897 19.3766L27.3663 19.4097L33.8977 24.0293ZM24.8803 36.7785L18.3489 32.1589L18.3398 32.1717L18.3308 32.1845L24.8803 36.7785ZM24.7259 39.5054L17.6996 43.3306L17.7073 43.3447L17.7151 43.3588L24.7259 39.5054ZM29.243 47.7237L36.2551 43.8726L36.2538 43.8702L29.243 47.7237ZM31.4997 49.0589V41.0589H31.4994L31.4997 49.0589ZM40.4996 49.0589V57.0589H40.4996L40.4996 49.0589ZM42.7569 47.7237L35.7461 43.8704L35.746 43.8706L42.7569 47.7237ZM47.2729 39.5072L54.2837 43.3605L54.2891 43.3506L54.2945 43.3408L47.2729 39.5072ZM47.1197 36.7778L53.6683 32.1827L53.6597 32.1704L53.651 32.1582L47.1197 36.7778ZM35.9954 37.8935L36.0424 29.8937L35.9635 29.8932L35.8846 29.8943L35.9954 37.8935ZM36.01 41.5247L35.963 49.5246L36.0419 49.5251L36.1209 49.524L36.01 41.5247ZM40.4996 46.4876L40.4979 54.4876L45.2293 54.4886L47.5094 50.3429L40.4996 46.4876ZM31.4966 46.4857L24.485 50.3376L26.7632 54.4848L31.495 54.4857L31.4966 46.4857ZM26.9794 38.263L20.4481 33.6433L17.5583 37.7289L19.9678 42.1149L26.9794 38.263ZM34.7119 27.331H42.7119V2.16717L28.1806 22.7113L34.7119 27.331ZM34.7119 35.5392L37.0849 43.1792L42.7119 41.4314V35.5392H34.7119ZM37.283 35.5314L29.283 35.5312L29.2829 41.4612L34.9566 43.1857L37.283 35.5314ZM37.2831 27.3246L43.8151 22.7059L29.2835 2.15424L29.2831 27.3245L37.2831 27.3246ZM45.0206 38.2674L52.0303 42.1227L54.4428 37.7362L51.5526 33.6487L45.0206 38.2674ZM38.1029 24.0298L44.5885 19.346C43.6068 17.9868 42.3165 16.8799 40.8237 16.1164L37.1811 23.2391L33.5386 30.3617C32.7767 29.9721 32.1183 29.4072 31.6174 28.7136L38.1029 24.0298ZM37.1811 23.2391L40.8237 16.1164C39.3309 15.353 37.6782 14.9548 36.0015 14.9546L36.0004 22.9546L35.9994 30.9546C35.1438 30.9545 34.3004 30.7513 33.5386 30.3617L37.1811 23.2391ZM36.0004 22.9546L36.0015 14.9546C34.3248 14.9544 32.672 15.3521 31.179 16.1152L34.8197 23.2388L38.4604 30.3623C37.6985 30.7517 36.855 30.9547 35.9994 30.9546L36.0004 22.9546ZM34.8197 23.2388L31.179 16.1152C29.686 16.8782 28.3954 17.9848 27.4134 19.3438L33.8977 24.0293L40.382 28.7147C39.8809 29.4083 39.2223 29.9729 38.4604 30.3623L34.8197 23.2388ZM33.8977 24.0293L27.3663 19.4097L18.3489 32.1589L24.8803 36.7785L31.4117 41.3981L40.4291 28.6489L33.8977 24.0293ZM24.8803 36.7785L18.3308 32.1845C17.1982 33.7993 16.5389 35.6983 16.4274 37.6676L24.4146 38.1199L32.4018 38.5723C32.3449 39.578 32.0082 40.5478 31.4297 41.3725L24.8803 36.7785ZM24.4146 38.1199L16.4274 37.6676C16.3159 39.6369 16.7565 41.5982 17.6996 43.3306L24.7259 39.5054L31.7521 35.6802C32.2337 36.5649 32.4588 37.5666 32.4018 38.5723L24.4146 38.1199ZM24.7259 39.5054L17.7151 43.3588L22.2323 51.5771L29.243 47.7237L36.2538 43.8702L31.7366 35.6519L24.7259 39.5054ZM29.243 47.7237L22.231 51.5748C23.143 53.2354 24.4845 54.6205 26.115 55.5853L30.1887 48.7001L34.2623 41.8149C35.0989 42.3099 35.7872 43.0206 36.2551 43.8726L29.243 47.7237ZM30.1887 48.7001L26.115 55.5853C27.7456 56.55 29.6055 57.059 31.5001 57.0589L31.4997 49.0589L31.4994 41.0589C32.4715 41.0588 33.4257 41.32 34.2623 41.8149L30.1887 48.7001ZM31.4997 49.0589V57.0589H40.4996V49.0589V41.0589H31.4997V49.0589ZM40.4996 49.0589L40.4996 57.0589C42.3939 57.0589 44.2533 56.5501 45.8837 55.5858L41.8109 48.7001L37.7381 41.8144C38.5743 41.3198 39.5281 41.0589 40.4996 41.0589L40.4996 49.0589ZM41.8109 48.7001L45.8837 55.5858C47.5141 54.6214 48.8556 53.2368 49.7679 51.5768L42.7569 47.7237L35.746 43.8706C36.2139 43.0192 36.9019 42.309 37.7381 41.8144L41.8109 48.7001ZM42.7569 47.7237L49.7678 51.577L54.2837 43.3605L47.2729 39.5072L40.262 35.6539L35.7461 43.8704L42.7569 47.7237ZM47.2729 39.5072L54.2945 43.3408C55.2408 41.6075 55.6837 39.6441 55.573 37.6724L47.5856 38.1207L39.5982 38.5689C39.5416 37.5618 39.7678 36.5589 40.2512 35.6736L47.2729 39.5072ZM47.5856 38.1207L55.573 37.6724C55.4624 35.7007 54.8026 33.7992 53.6683 32.1827L47.1197 36.7778L40.5711 41.373C39.9917 40.5473 39.6547 39.576 39.5982 38.5689L47.5856 38.1207ZM47.1197 36.7778L53.651 32.1582L44.6343 19.4101L38.1029 24.0298L31.5716 28.6495L40.5883 41.3975L47.1197 36.7778ZM35.9954 37.8935L35.9485 45.8934C34.3189 45.8838 32.759 45.2315 31.6077 44.0781L37.2699 38.4265L42.932 32.775C41.1048 30.9443 38.6288 29.9089 36.0424 29.8937L35.9954 37.8935ZM37.2699 38.4265L31.6077 44.0781C30.4565 42.9247 29.8071 41.3635 29.8005 39.7339L37.8005 39.702L45.8004 39.67C45.7901 37.0835 44.7593 34.6056 42.932 32.775L37.2699 38.4265ZM37.8005 39.702L29.8005 39.7339C29.794 38.1044 30.431 36.5381 31.573 35.3755L37.2801 40.9816L42.9872 46.5877C44.7998 44.7425 45.8108 42.2564 45.8004 39.67L37.8005 39.702ZM37.2801 40.9816L31.573 35.3755C32.7149 34.2129 34.2696 33.5481 35.8991 33.5255L36.01 41.5247L36.1209 49.524C38.7071 49.4881 41.1747 48.4329 42.9872 46.5877L37.2801 40.9816ZM36.01 41.5247L36.0569 33.5249C37.6865 33.5344 39.2464 34.1868 40.3977 35.3402L34.7355 40.9918L29.0734 46.6433C30.9006 48.474 33.3766 49.5094 35.963 49.5246L36.01 41.5247ZM34.7355 40.9918L40.3977 35.3402C41.5489 36.4936 42.1983 38.0548 42.2049 39.6844L34.2049 39.7163L26.205 39.7483C26.2153 42.3348 27.2461 44.8127 29.0734 46.6433L34.7355 40.9918ZM34.2049 39.7163L42.2049 39.6844C42.2114 41.3139 41.5744 42.8802 40.4324 44.0428L34.7253 38.4367L29.0182 32.8306C27.2056 34.6758 26.1946 37.1618 26.205 39.7483L34.2049 39.7163ZM34.7253 38.4367L40.4324 44.0428C39.2905 45.2054 37.7358 45.8702 36.1063 45.8928L35.9954 37.8935L35.8846 29.8943C33.2983 29.9302 30.8307 30.9854 29.0182 32.8306L34.7253 38.4367ZM40.4996 46.4876L40.5013 38.4876L31.4983 38.4857L31.4966 46.4857L31.495 54.4857L40.4979 54.4876L40.4996 46.4876ZM31.4966 46.4857L38.5083 42.6339L33.9911 34.4112L26.9794 38.263L19.9678 42.1149L24.485 50.3376L31.4966 46.4857ZM26.9794 38.263L33.5107 42.8828L41.2432 31.9508L34.7119 27.331L28.1806 22.7113L20.4481 33.6433L26.9794 38.263ZM34.7119 27.331H26.7119V35.5392H34.7119H42.7119V27.331H34.7119ZM34.7119 35.5392L32.3389 27.8993C29.5082 28.7785 27.0871 30.6444 25.5157 33.1576L32.299 37.3987L39.0823 41.6399C38.6223 42.3756 37.9135 42.9218 37.0849 43.1792L34.7119 35.5392ZM32.299 37.3987L25.5157 33.1576C23.9444 35.6709 23.3271 38.6646 23.7762 41.5944L31.6839 40.3823L39.5915 39.1701C39.723 40.0278 39.5423 40.9041 39.0823 41.6399L32.299 37.3987ZM31.6839 40.3823L23.7762 41.5944C24.2253 44.5243 25.711 47.1956 27.963 49.1228L33.1644 43.0445L38.3659 36.9663C39.0251 37.5304 39.46 38.3124 39.5915 39.1701L31.6839 40.3823ZM33.1644 43.0445L27.963 49.1228C30.215 51.05 33.0839 52.1049 36.0479 52.0959L36.0235 44.0959L35.9991 36.096C36.8668 36.0933 37.7066 36.4021 38.3659 36.9663L33.1644 43.0445ZM36.0235 44.0959L36.0479 52.0959C39.012 52.0868 41.8743 51.0144 44.1146 49.0735L38.8762 43.0271L33.6377 36.9807C34.2935 36.4126 35.1314 36.0986 35.9991 36.096L36.0235 44.0959ZM38.8762 43.0271L44.1146 49.0735C46.3548 47.1327 47.8241 44.4523 48.2554 41.5198L40.3405 40.3559L32.4256 39.192C32.5518 38.3335 32.982 37.5489 33.6377 36.9807L38.8762 43.0271ZM40.3405 40.3559L48.2554 41.5198C48.6866 38.5872 48.0511 35.5973 46.4644 33.0937L39.7071 37.3761L32.9499 41.6586C32.4854 40.9257 32.2994 40.0504 32.4256 39.192L40.3405 40.3559ZM39.7071 37.3761L46.4644 33.0937C44.8778 30.5901 42.4453 28.739 39.6093 27.8771L37.283 35.5314L34.9566 43.1857C34.1264 42.9333 33.4143 42.3915 32.9499 41.6586L39.7071 37.3761ZM37.283 35.5314L45.283 35.5315L45.2831 27.3247L37.2831 27.3246L29.2831 27.3245L29.283 35.5312L37.283 35.5314ZM37.2831 27.3246L30.751 31.9433L38.4885 42.8861L45.0206 38.2674L51.5526 33.6487L43.8151 22.7059L37.2831 27.3246ZM45.0206 38.2674L38.0108 34.4122L33.4898 42.6324L40.4996 46.4876L47.5094 50.3429L52.0303 42.1227L45.0206 38.2674Z" fill="#3F3F3F" mask="url(#path-5-inside-3_43_61)"/>
</svg>
